<svg xmlns="http://www.w3.org/2000/svg" width="50" height="50" viewBox="0 0 50 50" fill="none">
    <g clip-path="url(#clip0_175_1130)">
        <path d="M25 26.0417C26.2891 26.0417 27.3926 25.5725 28.3105 24.6342C29.2285 23.6958 29.6875 22.5677 29.6875 21.25C29.6875 19.9323 29.2285 18.8043 28.3105 17.8659C27.3926 16.9276 26.2891 16.4584 25 16.4584C23.7109 16.4584 22.6074 16.9276 21.6895 17.8659C20.7715 18.8043 20.3125 19.9323 20.3125 21.25C20.3125 22.5677 20.7715 23.6958 21.6895 24.6342C22.6074 25.5725 23.7109 26.0417 25 26.0417ZM25 50C18.7109 44.5296 14.0137 39.4484 10.9082 34.7566C7.80273 30.0647 6.25 25.7223 6.25 21.7292C6.25 15.7396 8.13477 10.9679 11.9043 7.4141C15.6738 3.86028 20.0391 2.08337 25 2.08337C29.9609 2.08337 34.3262 3.86028 38.0957 7.4141C41.8652 10.9679 43.75 15.7396 43.75 21.7292C43.75 25.7223 42.1973 30.0647 39.0918 34.7566C35.9863 39.4484 31.2891 44.5296 25 50Z" fill="#F42424"/>
    </g>
    <defs>
        <clipPath id="clip0_175_1130">
            <rect width="50" height="50" fill="white"/>
        </clipPath>
    </defs>
</svg>