<svg width="19" height="18" viewBox="0 0 19 18" fill="none" xmlns="http://www.w3.org/2000/svg">
<g id="Frame">
<path id="Vector" d="M3.23529 14.7647H4.27418L12.7042 6.33465L11.6654 5.29577L3.23529 13.7258V14.7647ZM2.74447 16C2.53351 16 2.35673 15.9286 2.21412 15.7859C2.07137 15.6433 2 15.4665 2 15.2555V13.8288C2 13.628 2.03857 13.4366 2.11571 13.2546C2.19271 13.0726 2.2988 12.914 2.434 12.7788L12.8628 2.35473C12.9873 2.24164 13.1247 2.15427 13.2751 2.09265C13.4257 2.03088 13.5836 2 13.7487 2C13.9138 2 14.0737 2.0293 14.2284 2.08791C14.3832 2.14652 14.5203 2.23972 14.6395 2.3675L15.6453 3.38579C15.7731 3.50507 15.8641 3.64232 15.9185 3.79756C15.9728 3.95279 16 4.10803 16 4.26326C16 4.42893 15.9717 4.58698 15.9152 4.73741C15.8586 4.88798 15.7687 5.02551 15.6453 5.15L5.22124 15.566C5.08604 15.7012 4.92744 15.8073 4.74544 15.8843C4.56344 15.9614 4.37204 16 4.17124 16H2.74447ZM12.1757 5.82426L11.6654 5.29577L12.7042 6.33465L12.1757 5.82426Z" fill="#007BFF"/>
</g>
</svg>
