<svg width="15" height="19" viewBox="0 0 15 19" fill="none" xmlns="http://www.w3.org/2000/svg">
<path d="M5.68496 11.4787L3.82557 11.5987C3.82557 11.5987 0.526546 7.47313 3.03254 3.10025C4.87979 -0.122157 8.21827 0.580362 9.84677 1.17256C9.84677 1.17256 11.6631 1.00183 11.9832 3.8002C12.3033 6.59856 11.3833 10.0591 9.36386 11.8784L5.68496 11.4787Z" fill="#414451"/>
<path d="M9.93599 13.805L8.83078 15.91L6.69673 16.1644L4.84434 15.3901L4.60449 13.5508L5.07162 12.2064L5.20437 11.8096C5.30481 11.6997 5.37291 11.5641 5.40112 11.4178C5.42475 11.3275 5.44187 11.2356 5.45236 11.1428C5.46196 11.0676 5.46985 10.9908 5.47371 10.9108C5.49513 10.4666 5.47799 10.0213 5.42247 9.58002C5.42247 9.58002 9.56254 7.67347 9.37496 9.58002C9.18738 11.4866 9.55722 11.6946 9.55722 11.6946L9.93599 13.805Z" fill="#F4BB87"/>
<path d="M4.82812 13.7385C4.82812 13.7385 6.92951 14.7793 10.1118 13.7385V18.1667H5.56863L4.82812 13.7385Z" fill="#69B0EE"/>
<path d="M8.81639 3.56787C8.81639 3.56787 8.69646 4.07428 7.89662 4.22112C7.5248 4.29837 7.16015 4.40682 6.80655 4.5453C6.35169 4.71114 5.93431 4.96568 5.57863 5.29414C5.22295 5.6226 4.93605 6.01844 4.73458 6.45867C4.42271 7.18062 4.30423 7.97134 4.3908 8.75299C4.3908 8.75299 5.76407 11.0723 7.41688 11.0588C9.06969 11.0454 10.4686 8.83282 10.7093 8.08653C10.7093 8.08653 11.1491 8.1198 11.3692 7.45998C11.4771 7.1628 11.5303 6.84849 11.526 6.53233C11.5238 6.45108 11.4943 6.37296 11.4421 6.31061C11.3614 6.22626 11.2579 6.16722 11.1442 6.1407C11.0306 6.11417 10.9116 6.12131 10.8019 6.16123C10.8019 6.16116 9.30954 5.56725 8.81639 3.56787Z" fill="#FED19A"/>
<path d="M9.55899 11.6938L8.06516 18.1666H13.8224C14.2033 18.1666 14.5121 17.8578 14.5121 17.4769V15.5812C14.5121 13.9019 13.2011 12.5147 11.5245 12.4198L10.7607 12.3772C10.5475 12.3651 10.3392 12.3087 10.149 12.2116C9.95881 12.1146 9.79095 11.9789 9.6561 11.8133L9.55899 11.6938ZM5.28129 11.7156L6.7713 18.1666H1.01298C0.632069 18.1666 0.323242 17.8578 0.323242 17.4769V15.5812C0.323278 13.9019 1.63428 12.5147 3.3109 12.4198L4.07469 12.3772C4.28787 12.3651 4.4962 12.3087 4.68638 12.2116C4.87656 12.1146 5.04442 11.9789 5.17925 11.8133L5.28129 11.7156Z" fill="#EEEFEE"/>
<path d="M11.4934 13.0709C10.6328 13.0709 9.95691 14.213 9.95691 15.6717C9.9434 16.302 10.0898 16.9255 10.3825 17.4839C10.4596 17.6218 10.5527 17.75 10.6599 17.8661C10.7179 17.8645 10.7741 17.8455 10.8212 17.8115C10.8682 17.7776 10.904 17.7303 10.9239 17.6757C10.8136 17.5604 10.7202 17.4301 10.6464 17.2886C10.3931 16.7879 10.2663 16.2327 10.277 15.6716C10.277 14.4352 10.8336 13.3908 11.4934 13.3908C12.1533 13.3908 12.7099 14.4352 12.7099 15.6716C12.7195 16.2333 12.5921 16.7889 12.3387 17.2903C12.2694 17.4231 12.1822 17.5458 12.0797 17.655C12.0948 17.7112 12.1268 17.7613 12.1715 17.7985C12.2161 17.8357 12.2712 17.8582 12.3291 17.8629C12.4412 17.7395 12.5384 17.6034 12.6187 17.4574C12.9013 16.9053 13.0426 16.2917 13.0299 15.6716C13.03 14.2131 12.3545 13.0709 11.4934 13.0709Z" fill="#BBBBCD"/>
<path d="M12.6432 17.5768C12.6429 17.6535 12.6123 17.7271 12.5581 17.7813C12.5038 17.8356 12.4303 17.8662 12.3536 17.8664C12.3449 17.8669 12.3362 17.8658 12.328 17.8632C12.27 17.8585 12.215 17.836 12.1703 17.7988C12.1257 17.7616 12.0936 17.7115 12.0785 17.6553C12.0694 17.6302 12.065 17.6037 12.0657 17.577C12.0654 17.5034 12.0934 17.4325 12.1441 17.3792C12.1948 17.3258 12.2641 17.2941 12.3376 17.2906C12.3428 17.2893 12.3482 17.2888 12.3536 17.2891C12.3914 17.2889 12.429 17.2962 12.464 17.3105C12.499 17.3249 12.5309 17.346 12.5578 17.3726C12.5847 17.3993 12.6061 17.431 12.6207 17.4659C12.6354 17.5008 12.643 17.5382 12.6432 17.5761V17.577V17.5768ZM10.9427 17.5768C10.943 17.6108 10.9365 17.6446 10.9235 17.676C10.9037 17.7306 10.8679 17.7779 10.8208 17.8118C10.7737 17.8458 10.7175 17.8648 10.6595 17.8664H10.6531C10.5766 17.8661 10.5033 17.8354 10.4493 17.7811C10.3954 17.7268 10.3651 17.6534 10.3653 17.5768C10.3648 17.5451 10.3702 17.5137 10.3813 17.484C10.3999 17.428 10.4354 17.3792 10.483 17.3442C10.5305 17.3093 10.5877 17.29 10.6467 17.2889H10.6531C10.7297 17.2888 10.8031 17.3191 10.8574 17.373C10.9117 17.427 10.9424 17.5003 10.9427 17.5768Z" fill="#575B6D"/>
<path d="M11.4943 13.3915C11.4596 13.3914 11.4258 13.38 11.398 13.3591C11.3703 13.3381 11.3502 13.3086 11.3407 13.2752C11.2226 12.9215 10.9992 12.6124 10.7004 12.3893C10.6657 12.365 10.642 12.3279 10.6346 12.2861C10.6273 12.2444 10.6368 12.2014 10.6611 12.1667C10.6854 12.1319 10.7225 12.1082 10.7642 12.1008C10.806 12.0935 10.849 12.103 10.8837 12.1273C11.2436 12.3917 11.511 12.7628 11.648 13.1879C11.6546 13.2117 11.6557 13.2367 11.6511 13.261C11.6465 13.2853 11.6363 13.3082 11.6214 13.3279C11.6065 13.3476 11.5872 13.3636 11.5651 13.3746C11.543 13.3857 11.5186 13.3914 11.4939 13.3915H11.4943V13.3915ZM5.47631 10.9109C5.47141 10.9909 5.46349 11.0677 5.45496 11.1428C5.44447 11.2356 5.42735 11.3276 5.40372 11.4179C5.12631 11.6403 3.39303 13.1502 3.48757 16.1589C3.489 16.2016 3.47347 16.243 3.44438 16.2742C3.41528 16.3053 3.37501 16.3237 3.3324 16.3252H3.32751C3.28593 16.3251 3.24601 16.3089 3.21615 16.2799C3.18629 16.251 3.16884 16.2116 3.16746 16.1701C3.12724 15.1756 3.31428 14.1851 3.71436 13.2738C4.11444 12.3624 4.71702 11.5543 5.47631 10.9109Z" fill="#BBBBCD"/>
<path d="M3.29518 17.5967C3.73704 17.5967 4.09523 17.2385 4.09523 16.7966C4.09523 16.3548 3.73704 15.9966 3.29518 15.9966C2.85332 15.9966 2.49512 16.3548 2.49512 16.7966C2.49512 17.2385 2.85332 17.5967 3.29518 17.5967Z" fill="#575B6D"/>
<path d="M3.29495 17.2321C3.53551 17.2321 3.73052 17.0371 3.73052 16.7965C3.73052 16.556 3.53551 16.361 3.29495 16.361C3.05439 16.361 2.85938 16.556 2.85938 16.7965C2.85938 17.0371 3.05439 17.2321 3.29495 17.2321Z" fill="#BBBBCD"/>
</svg>
