<svg xmlns="http://www.w3.org/2000/svg" width="28" height="28" viewBox="0 0 28 28" fill="none">
    <path d="M14 24.2083C13.7519 24.2083 13.5442 24.1244 13.3767 23.9566C13.2091 23.789 13.1253 23.5812 13.1253 23.3333V18.6666C13.1253 18.4187 13.2092 18.2109 13.377 18.0433C13.5448 17.8755 13.7527 17.7916 14.0006 17.7916C14.2487 17.7916 14.4565 17.8755 14.6239 18.0433C14.7915 18.2109 14.8753 18.4187 14.8753 18.6666V20.125H23.3337C23.5816 20.125 23.7893 20.2089 23.9569 20.3767C24.1248 20.5445 24.2087 20.7523 24.2087 21.0002C24.2087 21.2484 24.1248 21.4561 23.9569 21.6235C23.7893 21.7912 23.5816 21.875 23.3337 21.875H14.8753V23.3333C14.8753 23.5812 14.7914 23.789 14.6236 23.9566C14.4558 24.1244 14.2479 24.2083 14 24.2083ZM4.66699 21.875C4.41908 21.875 4.21131 21.7911 4.0437 21.6232C3.8759 21.4554 3.79199 21.2476 3.79199 20.9997C3.79199 20.7516 3.8759 20.5438 4.0437 20.3764C4.21131 20.2088 4.41908 20.125 4.66699 20.125H9.33366C9.58158 20.125 9.78934 20.2089 9.95695 20.3767C10.1248 20.5445 10.2087 20.7523 10.2087 21.0002C10.2087 21.2484 10.1248 21.4561 9.95695 21.6235C9.78934 21.7912 9.58158 21.875 9.33366 21.875H4.66699ZM9.33337 17.2083C9.08526 17.2083 8.87749 17.1244 8.71007 16.9566C8.54246 16.789 8.45866 16.5812 8.45866 16.3333V14.875H4.66699C4.41908 14.875 4.21131 14.7911 4.0437 14.6233C3.8759 14.4554 3.79199 14.2476 3.79199 13.9997C3.79199 13.7516 3.8759 13.5438 4.0437 13.3764C4.21131 13.2088 4.41908 13.125 4.66699 13.125H8.45866V11.6666C8.45866 11.4187 8.54256 11.2109 8.71037 11.0433C8.87817 10.8755 9.08603 10.7916 9.33395 10.7916C9.58206 10.7916 9.78983 10.8755 9.95724 11.0433C10.1249 11.2109 10.2087 11.4187 10.2087 11.6666V16.3333C10.2087 16.5812 10.1248 16.789 9.95695 16.9566C9.78914 17.1244 9.58128 17.2083 9.33337 17.2083ZM14.0003 14.875C13.7524 14.875 13.5446 14.7911 13.377 14.6233C13.2092 14.4554 13.1253 14.2476 13.1253 13.9997C13.1253 13.7516 13.2092 13.5438 13.377 13.3764C13.5446 13.2088 13.7524 13.125 14.0003 13.125H23.3337C23.5816 13.125 23.7893 13.2089 23.9569 13.3767C24.1248 13.5445 24.2087 13.7523 24.2087 14.0003C24.2087 14.2484 24.1248 14.4561 23.9569 14.6235C23.7893 14.7912 23.5816 14.875 23.3337 14.875H14.0003ZM18.6667 10.2083C18.4186 10.2083 18.2108 10.1244 18.0434 9.95658C17.8758 9.78897 17.792 9.58121 17.792 9.33329V4.66663C17.792 4.41871 17.8759 4.21095 18.0437 4.04333C18.2115 3.87553 18.4194 3.79163 18.6673 3.79163C18.9154 3.79163 19.1232 3.87553 19.2906 4.04333C19.4582 4.21095 19.542 4.41871 19.542 4.66663V6.12496H23.3337C23.5816 6.12496 23.7893 6.20886 23.9569 6.37667C24.1248 6.54447 24.2087 6.75233 24.2087 7.00025C24.2087 7.24836 24.1248 7.45613 23.9569 7.62354C23.7893 7.79115 23.5816 7.87496 23.3337 7.87496H19.542V9.33329C19.542 9.58121 19.4581 9.78897 19.2903 9.95658C19.1225 10.1244 18.9146 10.2083 18.6667 10.2083ZM4.66699 7.87496C4.41908 7.87496 4.21131 7.79106 4.0437 7.62325C3.8759 7.45545 3.79199 7.24758 3.79199 6.99967C3.79199 6.75156 3.8759 6.54379 4.0437 6.37638C4.21131 6.20876 4.41908 6.12496 4.66699 6.12496H14.0003C14.2482 6.12496 14.456 6.20886 14.6236 6.37667C14.7914 6.54447 14.8753 6.75233 14.8753 7.00025C14.8753 7.24836 14.7914 7.45613 14.6236 7.62354C14.456 7.79115 14.2482 7.87496 14.0003 7.87496H4.66699Z" fill="black"/>
</svg>