<svg width="81" height="68" viewBox="0 0 81 68" fill="none" xmlns="http://www.w3.org/2000/svg">
<g clip-path="url(#clip0_430_1830)">
<path d="M5.38965 8.98425C7.37442 8.98425 8.9834 7.37528 8.9834 5.3905C8.9834 3.40573 7.37442 1.79675 5.38965 1.79675C3.40488 1.79675 1.7959 3.40573 1.7959 5.3905C1.7959 7.37528 3.40488 8.98425 5.38965 8.98425Z" fill="#7ED63E"/>
<path d="M17.055 9.50178L15.3588 11.198L9.43267 17.1241C9.36592 17.191 9.28665 17.244 9.1994 17.2801C9.11214 17.3163 9.01861 17.3349 8.92416 17.3349C8.8297 17.3349 8.73618 17.3163 8.64892 17.2801C8.56167 17.244 8.4824 17.191 8.41564 17.1241L7.90892 16.6174V16.6138L6.38517 15.0901H6.38158L5.87486 14.5833C5.80804 14.5166 5.75502 14.4373 5.71885 14.3501C5.68268 14.2628 5.66406 14.1693 5.66406 14.0748C5.66406 13.9804 5.68268 13.8868 5.71885 13.7996C5.75502 13.7123 5.80804 13.6331 5.87486 13.5663L13.4972 5.94397L17.055 9.50178Z" fill="#D1E7F8"/>
<path d="M5.36523 16.1057L6.38083 15.0901L7.90566 16.6146L6.89006 17.6301L5.36523 16.1057Z" fill="#57A4FF"/>
<path d="M6.38086 15.0901L6.38158 15.0898L7.90605 16.6142L7.90533 16.6149L6.38086 15.0901ZM15.5305 5.94402L18.4922 2.98206L20.0166 4.50652L17.0554 7.46777L15.5305 5.94402Z" fill="#9BC9FF"/>
<path d="M17.4775 1.96358L18.4939 2.98025L20.0187 4.50508L21.0354 5.52139L22.0517 4.50508L18.4939 0.947266L17.4775 1.96358Z" fill="#2488FF"/>
<path d="M12.9912 5.43404L17.5653 10.0082L18.5816 8.99185L15.5324 5.94255L14.0075 4.41772L12.9912 5.43404Z" fill="#57A4FF"/>
<path d="M19.4053 14.7343V13.6561H17.6084V14.7343C16.8178 14.7343 15.8115 15.3811 15.8115 16.1718V21.203C15.8115 21.5983 16.4943 21.9218 16.8896 21.9218H20.124C20.3145 21.9212 20.497 21.8453 20.6316 21.7106C20.7663 21.5759 20.8422 21.3935 20.8428 21.203V16.1718C20.8416 15.7909 20.6898 15.4259 20.4205 15.1565C20.1511 14.8872 19.7862 14.7354 19.4053 14.7343Z" fill="#D1E7F8"/>
<path d="M19.4053 14.7343V13.6561H19.0459V14.5337C19.046 14.603 19.0663 14.6707 19.1043 14.7287C19.1422 14.7866 19.1963 14.8323 19.2597 14.86C19.5157 14.971 19.7337 15.1542 19.8872 15.3872C20.0407 15.6201 20.123 15.8928 20.124 16.1718V21.203C20.1235 21.3935 20.0475 21.5759 19.9129 21.7106C19.7782 21.8453 19.5957 21.9212 19.4053 21.9218H20.124C20.3145 21.9212 20.497 21.8453 20.6316 21.7106C20.7663 21.5759 20.8422 21.3935 20.8428 21.203V16.1718C20.8416 15.7909 20.6898 15.4259 20.4205 15.1565C20.1511 14.8872 19.7862 14.7354 19.4053 14.7343Z" fill="#BDDBFF"/>
<path d="M16.8896 12.2186H20.124V13.6561H16.8896V12.2186Z" fill="#007BFF"/>
<path d="M15.8115 16.5311H20.8428V20.1249H15.8115V16.5311Z" fill="#BDDBFF"/>
<path d="M20.124 16.5311H20.8428V20.1249H20.124V16.5311Z" fill="#9AC8FF"/>
<path d="M19.0459 17.9686H18.6865V17.6093C18.6865 17.5139 18.6487 17.4225 18.5813 17.3551C18.5139 17.2877 18.4225 17.2499 18.3271 17.2499C18.2318 17.2499 18.1404 17.2877 18.073 17.3551C18.0056 17.4225 17.9678 17.5139 17.9678 17.6093V17.9686H17.6084C17.5131 17.9686 17.4217 18.0065 17.3543 18.0739C17.2869 18.1413 17.249 18.2327 17.249 18.328C17.249 18.4233 17.2869 18.5147 17.3543 18.5821C17.4217 18.6495 17.5131 18.6874 17.6084 18.6874H17.9678V19.0468C17.9678 19.1421 18.0056 19.2335 18.073 19.3009C18.1404 19.3683 18.2318 19.4061 18.3271 19.4061C18.4225 19.4061 18.5139 19.3683 18.5813 19.3009C18.6487 19.2335 18.6865 19.1421 18.6865 19.0468V18.6874H19.0459C19.1412 18.6874 19.2326 18.6495 19.3 18.5821C19.3674 18.5147 19.4053 18.4233 19.4053 18.328C19.4053 18.2327 19.3674 18.1413 19.3 18.0739C19.2326 18.0065 19.1412 17.9686 19.0459 17.9686Z" fill="#007BFF"/>
<path d="M1.43645 21.9218C1.36538 21.9218 1.29591 21.9007 1.23683 21.8612C1.17774 21.8217 1.13169 21.7656 1.1045 21.6999C1.07731 21.6343 1.07019 21.562 1.08405 21.4923C1.09791 21.4226 1.13212 21.3586 1.18237 21.3083L5.21815 17.2722C5.25154 17.2388 5.29117 17.2124 5.33479 17.1943C5.37841 17.1763 5.42515 17.167 5.47235 17.167C5.51956 17.167 5.5663 17.1763 5.6099 17.1944C5.6535 17.2125 5.69312 17.239 5.72649 17.2724C5.75985 17.3058 5.78631 17.3454 5.80436 17.389C5.82241 17.4326 5.83169 17.4794 5.83168 17.5266C5.83166 17.5738 5.82234 17.6205 5.80427 17.6641C5.78619 17.7077 5.7597 17.7473 5.72631 17.7807L1.69052 21.8165C1.62314 21.8839 1.53175 21.9218 1.43645 21.9218Z" fill="#D1D3D4"/>
<path d="M7.65373 14.8363C7.72151 14.9018 7.81229 14.938 7.90652 14.9372C8.00075 14.9364 8.09088 14.8986 8.15751 14.832C8.22414 14.7653 8.26194 14.6752 8.26276 14.581C8.26358 14.4867 8.22735 14.396 8.16189 14.3282L6.63706 12.8033L6.12891 13.3115L7.65373 14.8363ZM8.67077 13.82C8.73854 13.8855 8.82932 13.9217 8.92355 13.9209C9.01778 13.9201 9.10791 13.8823 9.17454 13.8156C9.24118 13.749 9.27897 13.6589 9.27979 13.5647C9.28061 13.4704 9.24439 13.3796 9.17892 13.3119L7.65373 11.7874L7.14558 12.2956L8.67077 13.82ZM9.68708 12.8033C9.72044 12.8367 9.76006 12.8632 9.80366 12.8813C9.84727 12.8994 9.89401 12.9087 9.94121 12.9087C9.98841 12.9087 10.0352 12.8995 10.0788 12.8814C10.1224 12.8634 10.162 12.8369 10.1954 12.8035C10.2288 12.7702 10.2553 12.7305 10.2734 12.6869C10.2915 12.6433 10.3008 12.5966 10.3008 12.5494C10.3008 12.5022 10.2915 12.4555 10.2735 12.4118C10.2554 12.3682 10.229 12.3286 10.1956 12.2952L8.67077 10.7707L8.16261 11.2789L9.68708 12.8033ZM10.7038 11.7874C10.7716 11.8528 10.8624 11.889 10.9566 11.8881C11.0508 11.8872 11.1409 11.8493 11.2075 11.7827C11.2741 11.716 11.3118 11.6258 11.3126 11.5316C11.3133 11.4374 11.2771 11.3466 11.2115 11.2789L9.68672 9.75405L9.17856 10.2622L10.7038 11.7874ZM11.7201 10.7707C11.7878 10.8362 11.8786 10.8724 11.9728 10.8716C12.0671 10.8708 12.1572 10.833 12.2238 10.7663C12.2905 10.6997 12.3283 10.6096 12.3291 10.5154C12.3299 10.4211 12.2937 10.3303 12.2282 10.2626L10.7038 8.73774L10.1956 9.2459L11.7201 10.7707ZM12.7364 9.75405C12.7695 9.78838 12.8092 9.81576 12.853 9.83459C12.8969 9.85342 12.944 9.86334 12.9917 9.86375C13.0395 9.86417 13.0868 9.85507 13.131 9.83701C13.1751 9.81894 13.2152 9.79225 13.249 9.75851C13.2827 9.72477 13.3094 9.68464 13.3275 9.64047C13.3456 9.59631 13.3546 9.54899 13.3542 9.50127C13.3538 9.45355 13.3439 9.40639 13.3251 9.36255C13.3062 9.3187 13.2789 9.27905 13.2445 9.2459L11.7201 7.72107L11.2115 8.22958L12.7364 9.75405Z" fill="#9BC9FF"/>
<path d="M4.41729 7.08218C4.48468 7.14955 4.57607 7.1874 4.67137 7.1874C4.76666 7.1874 4.85805 7.14955 4.92544 7.08218L7.44107 4.56656C7.50653 4.49878 7.54275 4.408 7.54194 4.31377C7.54112 4.21954 7.50332 4.12941 7.43669 4.06278C7.37006 3.99615 7.27992 3.95835 7.1857 3.95753C7.09147 3.95671 7.00069 3.99294 6.93291 4.0584L4.67137 6.31995L3.84732 5.4959C3.77954 5.43044 3.68876 5.39421 3.59453 5.39503C3.50031 5.39585 3.41017 5.43365 3.34354 5.50028C3.27691 5.56691 3.23911 5.65704 3.23829 5.75127C3.23748 5.8455 3.2737 5.93628 3.33916 6.00406L4.41729 7.08218Z" fill="#F1F2F2"/>
<path d="M8.72306 1.82519C9.62587 1.56722 10.5603 1.4367 11.4992 1.43743C13.0656 1.43268 14.611 1.79763 16.0097 2.50261C16.0949 2.5455 16.1936 2.55281 16.2842 2.52292C16.3747 2.49303 16.4497 2.42839 16.4926 2.34323C16.5355 2.25807 16.5428 2.15936 16.5129 2.06881C16.483 1.97826 16.4183 1.9033 16.3332 1.86041C14.8341 1.10483 13.1779 0.713647 11.4992 0.718676C10.4934 0.717972 9.4925 0.857803 8.52541 1.13411C8.43376 1.16032 8.35629 1.22187 8.31002 1.3052C8.26375 1.38854 8.25248 1.48684 8.2787 1.57848C8.30491 1.67012 8.36645 1.7476 8.44978 1.79387C8.53312 1.84013 8.63142 1.8514 8.72306 1.82519ZM3.08986 18.0154C3.15605 18.015 3.22084 17.9962 3.27707 17.9613C3.33331 17.9264 3.3788 17.8766 3.40854 17.8175C3.43828 17.7583 3.4511 17.6921 3.4456 17.6262C3.4401 17.5602 3.41648 17.497 3.37736 17.4436C2.46808 16.1986 1.8563 14.7617 1.58904 13.2434C1.32178 11.725 1.40614 10.1656 1.83564 8.68494C1.86228 8.59339 1.85146 8.49501 1.80557 8.41144C1.75967 8.32787 1.68245 8.26596 1.59091 8.23932C1.49936 8.21268 1.40098 8.2235 1.31741 8.26939C1.23384 8.31529 1.17192 8.3925 1.14528 8.48405C0.685252 10.0706 0.595062 11.7415 0.881639 13.3683C1.16822 14.9951 1.82393 16.5346 2.79841 17.8684C2.83194 17.9142 2.87582 17.9514 2.92648 17.9769C2.97714 18.0024 3.03313 18.0156 3.08986 18.0154ZM14.2686 21.1768C12.7972 21.5957 11.2499 21.6746 9.74362 21.4073C8.23734 21.14 6.81158 20.5336 5.57422 19.634C5.53619 19.605 5.49275 19.5839 5.44646 19.5719C5.40016 19.5599 5.35194 19.5573 5.30461 19.5642C5.25729 19.571 5.21181 19.5873 5.17085 19.612C5.12989 19.6367 5.09426 19.6693 5.06607 19.7079C5.03787 19.7465 5.01766 19.7904 5.00663 19.8369C4.99561 19.8835 4.99398 19.9317 5.00184 19.9789C5.00971 20.0261 5.02691 20.0712 5.05244 20.1116C5.07797 20.1521 5.11131 20.187 5.15052 20.2144C6.47615 21.1785 8.00375 21.8283 9.61765 22.1147C11.2316 22.4011 12.8895 22.3166 14.4659 21.8675C14.5564 21.8404 14.6326 21.7787 14.678 21.6958C14.7234 21.6129 14.7343 21.5155 14.7083 21.4246C14.6824 21.3337 14.6217 21.2567 14.5394 21.2103C14.4571 21.1638 14.3598 21.1521 14.2686 21.1768ZM22.2805 11.4999C22.2803 12.3792 22.1741 13.2552 21.9642 14.109C21.9445 14.1866 21.8995 14.2555 21.8365 14.3049C21.7734 14.3544 21.6958 14.3815 21.6156 14.3821C21.5854 14.3821 21.5552 14.3785 21.5258 14.3713C21.4337 14.3478 21.3546 14.289 21.3055 14.2077C21.2565 14.1263 21.2413 14.0289 21.2635 13.9365C21.4616 13.1395 21.5618 12.3212 21.5617 11.4999C21.5668 9.94582 21.2073 8.41218 20.5124 7.02211C20.4734 6.93724 20.469 6.84053 20.5001 6.75247C20.5312 6.6644 20.5953 6.5919 20.6789 6.55032C20.7626 6.50874 20.8591 6.50135 20.9481 6.52971C21.0371 6.55807 21.1115 6.61996 21.1556 6.70227C21.9005 8.19157 22.2857 9.83476 22.2805 11.4999Z" fill="#007BFF"/>
<path d="M6.12958 17.886L6.63773 17.3775L5.62142 16.3612L5.1129 16.8694C5.04615 16.9361 4.99319 17.0154 4.95707 17.1026C4.92094 17.1898 4.90234 17.2833 4.90234 17.3777C4.90234 17.4721 4.92094 17.5656 4.95707 17.6528C4.99319 17.74 5.04615 17.8193 5.1129 17.886C5.24772 18.0209 5.43058 18.0966 5.62124 18.0966C5.71565 18.0966 5.80913 18.078 5.89635 18.0419C5.98357 18.0057 6.06282 17.9528 6.12958 17.886Z" fill="#2488FF"/>
</g>
<path d="M2.1875 43H0.957031V33.1357H2.1875V37.9482H2.25586L6.61035 33.1357H8.16211L4.1084 37.5039L8.52441 43H6.95215L3.25391 38.3789L2.1875 39.5547V43ZM11.5254 42.1113C12.6465 42.1113 13.5078 41.3252 13.5078 40.2998V39.7188L11.6074 39.835C10.6504 39.8965 10.1035 40.3203 10.1035 40.9902C10.1035 41.667 10.6709 42.1113 11.5254 42.1113ZM11.2588 43.123C9.84375 43.123 8.89355 42.2686 8.89355 40.9902C8.89355 39.7734 9.83008 39.0078 11.4707 38.9121L13.5078 38.7959V38.2012C13.5078 37.333 12.9336 36.8135 11.9492 36.8135C11.0332 36.8135 10.459 37.2441 10.3086 37.9414H9.16016C9.24219 36.7109 10.2949 35.7676 11.9766 35.7676C13.6445 35.7676 14.6973 36.6699 14.6973 38.085V43H13.5693V41.7764H13.542C13.1182 42.5898 12.2158 43.123 11.2588 43.123ZM19.6602 35.7676C21.4717 35.7676 22.7021 37.2168 22.7021 39.4453C22.7021 41.6738 21.4785 43.123 19.6875 43.123C18.6689 43.123 17.8486 42.624 17.4248 41.8447H17.3975V45.3721H16.208V35.8906H17.3359V37.0938H17.3633C17.8008 36.2939 18.6279 35.7676 19.6602 35.7676ZM19.4277 42.0771C20.6924 42.0771 21.4854 41.0586 21.4854 39.4453C21.4854 37.8389 20.6924 36.8135 19.4277 36.8135C18.2109 36.8135 17.3906 37.8662 17.3906 39.4453C17.3906 41.0312 18.2109 42.0771 19.4277 42.0771ZM26.7559 36.7998C25.6416 36.7998 24.8623 37.6543 24.7871 38.8369H28.6494C28.6221 37.6475 27.877 36.7998 26.7559 36.7998ZM28.6221 40.9629H29.791C29.5859 42.207 28.3828 43.123 26.8311 43.123C24.7939 43.123 23.5566 41.708 23.5566 39.4727C23.5566 37.2646 24.8145 35.7676 26.7764 35.7676C28.6973 35.7676 29.8799 37.1621 29.8799 39.3154V39.7666H24.7803V39.835C24.7803 41.1953 25.5801 42.0908 26.8584 42.0908C27.7607 42.0908 28.4238 41.6328 28.6221 40.9629ZM31.1445 43V33.1357H32.334V43H31.1445ZM33.9404 43V35.8906H35.0615V37.0254H35.0889C35.4854 36.2598 36.2441 35.7676 37.3447 35.7676C38.9033 35.7676 39.8057 36.7725 39.8057 38.3857V43H38.6162V38.5977C38.6162 37.4492 38.0762 36.8203 36.9824 36.8203C35.8613 36.8203 35.1299 37.6133 35.1299 38.8164V43H33.9404ZM41.3848 43V35.8906H42.5742V43H41.3848ZM41.9795 34.6943C41.5762 34.6943 41.2412 34.3594 41.2412 33.9561C41.2412 33.5459 41.5762 33.2178 41.9795 33.2178C42.3896 33.2178 42.7246 33.5459 42.7246 33.9561C42.7246 34.3594 42.3896 34.6943 41.9795 34.6943ZM44.0576 37.8525C44.0576 36.6357 45.1445 35.7676 46.71 35.7676C48.1797 35.7676 49.2598 36.6426 49.3145 37.8457H48.1797C48.0977 37.1621 47.5439 36.7383 46.6689 36.7383C45.8008 36.7383 45.2266 37.1689 45.2266 37.791C45.2266 38.2832 45.6025 38.6113 46.4092 38.8164L47.5098 39.083C48.9453 39.4453 49.4648 39.9648 49.4648 41.0107C49.4648 42.248 48.2959 43.123 46.6348 43.123C45.0762 43.123 43.9893 42.2754 43.8662 41.0176H45.0557C45.1855 41.7559 45.7461 42.1523 46.71 42.1523C47.6738 42.1523 48.2686 41.7422 48.2686 41.0996C48.2686 40.5938 47.9746 40.3203 47.1748 40.1084L45.9238 39.7871C44.6729 39.4658 44.0576 38.8232 44.0576 37.8525ZM53.0469 42.1113C54.168 42.1113 55.0293 41.3252 55.0293 40.2998V39.7188L53.1289 39.835C52.1719 39.8965 51.625 40.3203 51.625 40.9902C51.625 41.667 52.1924 42.1113 53.0469 42.1113ZM52.7803 43.123C51.3652 43.123 50.415 42.2686 50.415 40.9902C50.415 39.7734 51.3516 39.0078 52.9922 38.9121L55.0293 38.7959V38.2012C55.0293 37.333 54.4551 36.8135 53.4707 36.8135C52.5547 36.8135 51.9805 37.2441 51.8301 37.9414H50.6816C50.7637 36.7109 51.8164 35.7676 53.498 35.7676C55.166 35.7676 56.2188 36.6699 56.2188 38.085V43H55.0908V41.7764H55.0635C54.6396 42.5898 53.7373 43.123 52.7803 43.123Z" fill="black"/>
<path d="M3.26074 64V55.6533H3.22656L0.649414 57.4854V55.9814L3.24707 54.1357H4.75781V64H3.26074ZM10.7598 64.1846C8.39453 64.1846 6.99316 62.2021 6.99316 59.0576C6.99316 55.9336 8.4082 53.9512 10.7598 53.9512C13.1182 53.9512 14.5127 55.9268 14.5127 59.0508C14.5127 62.1953 13.125 64.1846 10.7598 64.1846ZM10.7598 62.8994C12.168 62.8994 12.9678 61.4434 12.9678 59.0576C12.9678 56.7061 12.1543 55.2363 10.7598 55.2363C9.36523 55.2363 8.54492 56.7129 8.54492 59.0576C8.54492 61.4365 9.35156 62.8994 10.7598 62.8994ZM19.4824 64.1846C17.1172 64.1846 15.7158 62.2021 15.7158 59.0576C15.7158 55.9336 17.1309 53.9512 19.4824 53.9512C21.8408 53.9512 23.2354 55.9268 23.2354 59.0508C23.2354 62.1953 21.8477 64.1846 19.4824 64.1846ZM19.4824 62.8994C20.8906 62.8994 21.6904 61.4434 21.6904 59.0576C21.6904 56.7061 20.877 55.2363 19.4824 55.2363C18.0879 55.2363 17.2676 56.7129 17.2676 59.0576C17.2676 61.4365 18.0742 62.8994 19.4824 62.8994ZM31.0488 64.1846C28.6836 64.1846 27.2822 62.2021 27.2822 59.0576C27.2822 55.9336 28.6973 53.9512 31.0488 53.9512C33.4072 53.9512 34.8018 55.9268 34.8018 59.0508C34.8018 62.1953 33.4141 64.1846 31.0488 64.1846ZM31.0488 62.8994C32.457 62.8994 33.2568 61.4434 33.2568 59.0576C33.2568 56.7061 32.4434 55.2363 31.0488 55.2363C29.6543 55.2363 28.834 56.7129 28.834 59.0576C28.834 61.4365 29.6406 62.8994 31.0488 62.8994ZM39.7715 64.1846C37.4062 64.1846 36.0049 62.2021 36.0049 59.0576C36.0049 55.9336 37.4199 53.9512 39.7715 53.9512C42.1299 53.9512 43.5244 55.9268 43.5244 59.0508C43.5244 62.1953 42.1367 64.1846 39.7715 64.1846ZM39.7715 62.8994C41.1797 62.8994 41.9795 61.4434 41.9795 59.0576C41.9795 56.7061 41.166 55.2363 39.7715 55.2363C38.377 55.2363 37.5566 56.7129 37.5566 59.0576C37.5566 61.4365 38.3633 62.8994 39.7715 62.8994ZM48.4941 64.1846C46.1289 64.1846 44.7275 62.2021 44.7275 59.0576C44.7275 55.9336 46.1426 53.9512 48.4941 53.9512C50.8525 53.9512 52.2471 55.9268 52.2471 59.0508C52.2471 62.1953 50.8594 64.1846 48.4941 64.1846ZM48.4941 62.8994C49.9023 62.8994 50.7021 61.4434 50.7021 59.0576C50.7021 56.7061 49.8887 55.2363 48.4941 55.2363C47.0996 55.2363 46.2793 56.7129 46.2793 59.0576C46.2793 61.4365 47.0859 62.8994 48.4941 62.8994ZM62.6309 59.1123H61.209C61.0176 58.4492 60.4707 57.9092 59.5547 57.9092C58.4131 57.9092 57.668 58.8867 57.668 60.4043C57.668 61.9629 58.4199 62.8994 59.5684 62.8994C60.4434 62.8994 61.0176 62.4619 61.2227 61.71H62.6445C62.4326 63.1523 61.25 64.1367 59.5547 64.1367C57.4971 64.1367 56.1709 62.708 56.1709 60.4043C56.1709 58.1484 57.4971 56.6787 59.541 56.6787C61.3184 56.6787 62.4258 57.7861 62.6309 59.1123ZM64.4697 66.6797C64.3535 66.6797 63.9775 66.666 63.8682 66.6455V65.4492C63.9775 65.4766 64.2236 65.4766 64.3467 65.4766C65.0371 65.4766 65.3994 65.1895 65.625 64.4512C65.625 64.4375 65.7549 64.0137 65.7549 64.0068L63.1572 56.8086H64.7568L66.582 62.6602H66.6025L68.4277 56.8086H69.9863L67.2861 64.376C66.6709 66.1191 65.9668 66.6797 64.4697 66.6797ZM72.3926 64H70.9707V56.8086H72.8232L75.127 62.0791H75.1816L77.499 56.8086H79.3105V64H77.875V59.0098H77.8271L75.6738 63.7197H74.5938L72.4404 59.0098H72.3926V64Z" fill="black"/>
<defs>
<clipPath id="clip0_430_1830">
<rect width="23" height="23" fill="white"/>
</clipPath>
</defs>
</svg>
