<svg width="19" height="20" viewBox="0 0 19 20" fill="none" xmlns="http://www.w3.org/2000/svg">
<path d="M6.93945 7.80005H12.0195V14.56H6.93945V7.80005Z" fill="#FBC791"/>
<path d="M13.2992 5.88003C13.2992 8.20003 11.6192 11.16 9.49922 11.16C7.41922 11.16 5.69922 8.20003 5.69922 5.88003C5.69922 3.56003 7.37922 2.28003 9.49922 2.28003C11.5792 2.28003 13.2992 3.56003 13.2992 5.88003Z" fill="#FFE0B2"/>
<path d="M13.8314 6.97518C13.9582 6.50602 13.819 6.06025 13.5205 5.97952C13.2219 5.8988 12.8771 6.21369 12.7502 6.68285C12.6233 7.15202 12.7625 7.59779 13.0611 7.67851C13.3597 7.75924 13.7045 7.44435 13.8314 6.97518Z" fill="#FFE0B2"/>
<path d="M6.26164 6.7112C6.13479 6.24204 5.78993 5.92714 5.49137 6.00787C5.19281 6.08859 5.05361 6.53437 5.18047 7.00353C5.30732 7.4727 5.65219 7.78759 5.95074 7.70686C6.2493 7.62614 6.3885 7.18036 6.26164 6.7112Z" fill="#FFE0B2"/>
<path d="M5.90131 7.35997C5.90131 7.35997 4.30131 3.39997 7.22131 1.23997C10.1413 -0.920028 12.3013 1.75997 12.3013 1.75997C12.3013 1.75997 14.9013 1.95997 13.1013 7.35997C13.1013 7.35997 13.2213 4.39997 11.8613 3.23997C11.8613 3.23997 11.3813 3.91997 8.10131 4.27997C5.30131 4.55997 5.90131 7.35997 5.90131 7.35997Z" fill="#525252"/>
<path d="M12.5798 12.6V11C12.2198 10.96 11.9798 10.96 11.9798 10.96L9.49977 12.88L7.05977 10.96C7.05977 10.96 6.77977 10.96 6.33977 11.04V12.68H5.25977V19.12H13.0198V12.6H12.5798Z" fill="#56B3E5"/>
<path d="M10.501 18.96L9.86098 14.08H9.14098L8.50098 18.96H10.501Z" fill="#676767"/>
<path d="M12.0605 9.56006L12.9405 11.0401L10.8605 14.0401L9.50055 12.8401C9.50055 12.8801 11.2205 11.4001 12.0605 9.56006ZM6.94055 9.56006L6.06055 11.0401L8.14055 14.0401L9.50055 12.8401C9.50055 12.8801 7.78055 11.4001 6.94055 9.56006Z" fill="#98D0F1"/>
<path d="M9.86016 14.0799L10.3402 13.6399L9.50016 12.8799L8.66016 13.6399L9.14016 14.0799H9.86016Z" fill="#525252"/>
<path d="M12.9405 11.0801L12.5005 11.7201L9.50047 18.4401L6.50047 11.7201L6.06047 11.0801C4.34047 11.4801 0.980469 13.3601 0.980469 15.6401V18.8001C0.980469 19.2401 1.34047 19.6001 1.78047 19.6001H17.2605C17.7005 19.6001 18.0605 19.2401 18.0605 18.8001V15.6401C18.0205 13.3201 14.6605 11.4801 12.9405 11.0801Z" fill="#E6E6E5"/>
<path d="M13.0204 13.56C12.7804 14.12 12.7404 14.8 12.8604 15.48C12.9404 15.92 13.1004 16.32 13.3004 16.68V16.72L13.6604 16.64L13.6204 16.6C13.4204 16.24 13.2604 15.84 13.1804 15.44C12.9404 14.16 13.3804 13.04 14.1404 12.92H14.2604C14.9804 12.88 15.7404 13.76 15.9404 14.96C16.0204 15.36 16.0204 15.8 15.9404 16.2V16.24L16.3004 16.16V16.12C16.3804 15.72 16.3404 15.28 16.2604 14.84C16.0204 13.48 15.1004 12.48 14.2204 12.52H14.1404C14.0204 12.24 13.7404 11.68 13.4204 11.16C13.2604 11.12 13.1004 11.04 12.9404 11.04L12.9004 11.08C13.3004 11.6 13.6204 12.28 13.7804 12.64C13.4604 12.8 13.2204 13.12 13.0204 13.56Z" fill="#CDCCCC"/>
<path d="M13.4215 17.0801C13.6203 17.0801 13.7815 16.9189 13.7815 16.7201C13.7815 16.5213 13.6203 16.3601 13.4215 16.3601C13.2227 16.3601 13.0615 16.5213 13.0615 16.7201C13.0615 16.9189 13.2227 17.0801 13.4215 17.0801Z" fill="#676767"/>
<path d="M16.1393 16.5999C16.3381 16.5999 16.4993 16.4387 16.4993 16.2399C16.4993 16.0411 16.3381 15.8799 16.1393 15.8799C15.9405 15.8799 15.7793 16.0411 15.7793 16.2399C15.7793 16.4387 15.9405 16.5999 16.1393 16.5999Z" fill="#676767"/>
<path d="M3.86098 16.1601C4.10098 13.4401 5.14098 12.2001 5.98098 11.0801C5.82098 11.1201 5.62098 11.2001 5.42098 11.2401C4.58098 12.4401 3.74098 13.6001 3.50098 16.1201L3.86098 16.1601Z" fill="#CDCCCC"/>
<path d="M3.66133 16.9601C4.10316 16.9601 4.46133 16.6019 4.46133 16.1601C4.46133 15.7183 4.10316 15.3601 3.66133 15.3601C3.2195 15.3601 2.86133 15.7183 2.86133 16.1601C2.86133 16.6019 3.2195 16.9601 3.66133 16.9601Z" fill="#CDCCCC"/>
<path d="M3.65977 16.56C3.88068 16.56 4.05977 16.3809 4.05977 16.16C4.05977 15.9391 3.88068 15.76 3.65977 15.76C3.43885 15.76 3.25977 15.9391 3.25977 16.16C3.25977 16.3809 3.43885 16.56 3.65977 16.56Z" fill="#B4B4B4"/>
</svg>
