<svg xmlns="http://www.w3.org/2000/svg" width="28" height="28" viewBox="0 0 28 28" fill="none">
    <g clip-path="url(#clip0_580_5138)">
        <path d="M12.0786 10.9821C10.9513 10.4502 10.0037 10.1214 9.99129 10.1174C9.77128 10.042 9.65463 9.80209 9.72988 9.5816C9.76616 9.47587 9.84285 9.38889 9.94309 9.33977C10.0433 9.29065 10.1589 9.28341 10.2645 9.31963C10.3194 9.33892 11.3346 9.69015 12.5375 10.2663C12.899 10.4395 12.4573 11.1614 12.0786 10.9821Z" fill="#BDD9E5"/>
        <path d="M5.37598 16.6365C5.37598 14.3576 5.88118 12.0529 6.30162 10.53C6.59064 9.48246 7.54253 8.75769 8.62731 8.75769C9.71231 8.75769 10.6642 9.48224 10.9532 10.53C11.3737 12.0529 11.8789 14.3576 11.8789 16.6365" fill="#E3F4FC"/>
        <path d="M8.62709 8.75769C8.05244 8.75769 7.54811 9.48246 7.39493 10.5297C7.17273 12.0529 6.90509 14.3579 6.90509 16.6366H5.37598C5.37598 14.3579 5.88096 12.0529 6.30118 10.5297C6.5902 9.48246 7.54259 8.75769 8.62709 8.75769Z" fill="#BDD9E5"/>
        <path d="M13.1839 6.54664L13.886 4.30132C14.428 2.56763 13.4646 0.721707 11.7343 0.178694C10.0039 -0.364539 8.1618 0.600776 7.61962 2.33447L6.91766 4.57979C6.37548 6.31349 7.33891 8.15941 9.06928 8.70242C10.7996 9.24565 12.6419 8.28034 13.1839 6.54664Z" fill="#FFDC8D"/>
        <path d="M8.07072 5.05456L8.80452 2.70738C9.07561 1.84031 9.67159 1.16563 10.4165 0.775438C10.9867 0.476644 11.6436 0.344589 12.3088 0.421465C12.125 0.32246 11.9322 0.241251 11.733 0.178945C10.8677 -0.0926716 9.9745 0.0128079 9.22982 0.403054C8.48514 0.793191 7.88911 1.46788 7.61802 2.33494L7.50864 2.6847C7.21918 2.50684 6.84687 2.48053 6.52405 2.64963C6.03553 2.90558 5.84669 3.50985 6.10214 3.99933C6.2709 4.323 6.59159 4.51412 6.9306 4.53358L6.91605 4.57982C6.37388 6.31379 7.33731 8.15966 9.06789 8.70289C9.26697 8.76554 9.47155 8.80904 9.67886 8.83281C8.31873 8.10147 7.59221 6.58514 8.07072 5.05456Z" fill="#E8C57E"/>
        <path d="M13.8863 4.3016C11.5321 4.03234 10.0558 2.11125 10.0558 2.11125C9.60254 2.71443 9.17811 2.99739 8.82625 3.11706C8.42632 3.25273 7.99336 3.12796 7.69471 2.82895C7.6394 2.77343 7.57763 2.72477 7.51074 2.68402L7.6199 2.3347C7.89098 1.46785 8.48702 0.793002 9.2317 0.40281C9.97638 0.0125637 10.8698 -0.0929157 11.735 0.178701C13.4651 0.721714 14.4285 2.56758 13.8864 4.30155L13.8863 4.3016Z" fill="#5C5E70"/>
        <path d="M8.8058 2.70772C9.07689 1.84066 9.67293 1.16597 10.4176 0.775779C10.9873 0.477204 11.6436 0.345094 12.3082 0.421533C12.1248 0.322731 11.9326 0.241546 11.7339 0.179067C10.8686 -0.0925495 9.97541 0.0129299 9.23073 0.403177C8.48605 0.793314 7.89001 1.46822 7.61892 2.33507L7.50977 2.68438C7.57599 2.72488 7.63773 2.7732 7.69368 2.82931C7.95284 3.08871 8.31323 3.21671 8.66526 3.15742L8.8058 2.70772ZM11.9638 6.35392C11.9211 6.35393 11.8787 6.34737 11.838 6.33446C11.7853 6.31792 11.7363 6.29114 11.6939 6.25564C11.6515 6.22014 11.6165 6.17662 11.5909 6.12756C11.5653 6.07851 11.5496 6.02488 11.5447 5.96974C11.5397 5.91459 11.5457 5.85902 11.5622 5.80619L11.7274 5.27731C11.7608 5.17063 11.8351 5.08161 11.934 5.0298C12.0329 4.97799 12.1483 4.96762 12.2548 5.00098C12.3075 5.01751 12.3565 5.04428 12.3989 5.07977C12.4413 5.11526 12.4763 5.15878 12.5019 5.20783C12.5275 5.25689 12.5432 5.31052 12.5482 5.36566C12.5531 5.4208 12.5471 5.47638 12.5306 5.5292L12.3654 6.05814C12.3386 6.14384 12.2852 6.21874 12.213 6.27194C12.1407 6.32514 12.0534 6.35385 11.9638 6.35392ZM10.304 5.83298C10.2613 5.83298 10.2189 5.8264 10.1782 5.81348C10.1255 5.79694 10.0765 5.77016 10.0341 5.73467C9.9917 5.69918 9.95669 5.65566 9.93108 5.60661C9.90546 5.55756 9.88974 5.50394 9.88481 5.4488C9.87988 5.39366 9.88584 5.33809 9.90234 5.28526L10.0677 4.75633C10.1011 4.64964 10.1753 4.56059 10.2742 4.50877C10.3731 4.45695 10.4884 4.4466 10.5949 4.48C10.6477 4.49653 10.6967 4.52331 10.7391 4.55881C10.7815 4.59432 10.8165 4.63785 10.8422 4.68692C10.8678 4.736 10.8835 4.78965 10.8885 4.84482C10.8934 4.89998 10.8874 4.95558 10.8709 5.00844L10.7056 5.53715C10.6788 5.62288 10.6254 5.69779 10.5532 5.751C10.4809 5.8042 10.3936 5.83296 10.304 5.83298Z" fill="#3B3D4C"/>
        <path d="M25.9407 27.2467H2.39551V22.8695H25.9407V27.2467Z" fill="#5C5E70"/>
        <path d="M25.9407 24.2245H2.39551V21.7703H25.9407V24.2245Z" fill="#3B3D4C"/>
        <path d="M12.3801 19.9329L11.099 20.2313L0.419922 20.3186V16.5821C2.77662 17.0218 3.77872 16.7964 6.69083 14.8966C8.43317 13.7604 11.099 13.7166 11.099 13.7166L11.8451 14.8961L12.3801 19.9329Z" fill="#4BC999"/>
        <path d="M11.0999 20.2316L0.420898 20.3185V18.814C2.96283 19.769 9.85493 18.6301 11.5146 18.6301L11.5656 19.3686L11.0999 20.2316Z" fill="#3AAF80"/>
        <path d="M0.42082 21.5191C0.365553 21.5191 0.310827 21.5082 0.259767 21.487C0.208707 21.4658 0.162314 21.4348 0.123236 21.3956C0.0841586 21.3565 0.0531623 21.31 0.0320173 21.2588C0.0108724 21.2077 -7.17871e-06 21.1528 3.55377e-09 21.0974V18.5444C3.55377e-09 18.3117 0.188398 18.1229 0.42082 18.1229C0.653242 18.1229 0.841695 18.3117 0.841695 18.5444V21.0974C0.841703 21.1528 0.830821 21.2077 0.809673 21.2588C0.788524 21.31 0.757523 21.3565 0.71844 21.3956C0.679357 21.4348 0.632957 21.4659 0.581891 21.4871C0.530825 21.5082 0.476092 21.5192 0.42082 21.5191Z" fill="#3B3D4C"/>
        <path d="M0.41998 21.5399C0.419791 21.7145 0.454045 21.8875 0.520773 22.0488C0.587501 22.2101 0.685387 22.3567 0.808808 22.48C1.04911 22.7205 1.38068 22.8695 1.74703 22.8695H26.5873C27.3203 22.8695 27.9143 22.2743 27.9143 21.5399C27.9143 21.3443 27.8722 21.1583 27.7953 20.9906C27.7298 20.8451 27.6383 20.7127 27.5256 20.5998C27.4025 20.4761 27.2563 20.3781 27.0953 20.3112C26.9342 20.2443 26.7616 20.21 26.5873 20.2102H1.74697C1.2095 20.2102 0.74723 20.5302 0.538925 20.9906C0.46009 21.163 0.41949 21.3504 0.419925 21.5399H0.41998Z" fill="#BDD9E5"/>
        <path d="M8.97403 18.2452C6.15106 18.8567 3.97395 19.0658 2.64483 19.1335C2.15603 19.1581 1.74358 19.1667 1.41031 19.1667C0.864258 19.1667 0.530391 19.1442 0.419922 19.1352V18.2906C0.432773 18.2906 0.446172 18.2912 0.45968 18.2922C0.469305 18.2933 0.789062 18.3216 1.39407 18.3216C2.67108 18.3216 5.21919 18.1956 8.79608 17.421C8.8501 17.4092 8.9059 17.4083 8.96029 17.4181C9.01468 17.428 9.06659 17.4486 9.11305 17.4786C9.1595 17.5086 9.19959 17.5475 9.23102 17.5931C9.26244 17.6387 9.28459 17.69 9.2962 17.7441C9.30792 17.7982 9.30888 17.8541 9.29904 17.9086C9.28919 17.9631 9.26872 18.015 9.23881 18.0616C9.20889 18.1081 9.17011 18.1483 9.12469 18.1798C9.07927 18.2113 9.02804 18.2336 8.97403 18.2452Z" fill="#3AAF80"/>
        <path d="M0.540094 20.9906C0.606011 21.1358 0.697403 21.268 0.809922 21.3808C1.05022 21.6214 1.38179 21.7704 1.74814 21.7704H26.5885C27.1255 21.7704 27.5884 21.4506 27.7965 20.9907C27.7309 20.8451 27.6395 20.7127 27.5267 20.5998C27.4036 20.4761 27.2574 20.3781 27.0964 20.3112C26.9354 20.2443 26.7628 20.21 26.5885 20.2102H1.74809C1.21062 20.2102 0.748344 20.5302 0.540039 20.9906H0.540094Z" fill="#E3F4FC"/>
        <path d="M0.42082 19.557C0.309235 19.5569 0.202231 19.5125 0.123323 19.4334C0.0444146 19.3544 5.79732e-05 19.2472 0 19.1354L0 16.5823C0 16.4705 0.0443363 16.3632 0.123255 16.2841C0.202175 16.2051 0.309212 16.1606 0.42082 16.1606C0.532429 16.1606 0.639466 16.2051 0.718385 16.2841C0.797304 16.3632 0.841641 16.4705 0.841641 16.5823V19.1354C0.841597 19.2472 0.797247 19.3544 0.718337 19.4335C0.639427 19.5125 0.532415 19.557 0.42082 19.557V19.557Z" fill="#5C5E70"/>
        <path d="M27.9989 17.3579C27.9934 19.162 26.5114 20.6096 24.7159 20.6355C24.6996 20.636 24.6833 20.6362 24.667 20.6361H22.3678C21.461 20.6361 20.64 20.2678 20.046 19.6729C19.4493 19.0749 19.0812 18.2485 19.084 17.3354C19.0902 15.5157 20.5986 14.0578 22.4148 14.0572C22.3257 13.7019 22.4338 13.3071 22.7397 13.0475C23.1072 12.7355 23.6583 12.7355 24.0257 13.0475C24.332 13.3065 24.4399 13.7019 24.35 14.0572H24.7153C25.6221 14.0572 26.4431 14.4253 27.0372 15.0201C27.6342 15.6179 28.0023 16.4448 27.9989 17.3579Z" fill="#FFDC8D"/>
        <path d="M27.9989 17.3579C27.9934 19.162 26.5114 20.6096 24.7159 20.6355C24.6996 20.636 24.6833 20.6362 24.667 20.6361H22.3678C21.461 20.6361 20.64 20.2678 20.046 19.6729C19.4493 19.0749 19.0812 18.2485 19.084 17.3354C19.0846 17.1268 19.1053 16.9187 19.1457 16.714C19.2737 17.3669 19.5947 17.9504 20.0459 18.403C20.64 18.9979 21.4609 19.366 22.3678 19.366H24.667C24.6835 19.366 24.6997 19.366 24.7159 19.3656C26.3 19.3425 27.6398 18.213 27.9371 16.7085C27.9792 16.9224 27.9999 17.1399 27.9989 17.3579H27.9989Z" fill="#E8C57E"/>
        <path d="M24.7158 20.6363C24.2688 18.3047 25.6568 16.3191 25.6568 16.3191C24.947 16.0659 24.5505 15.7446 24.3315 15.4439C24.0827 15.1022 24.0722 14.6508 24.2677 14.2758C24.304 14.2064 24.3318 14.1328 24.3506 14.0566H24.7159C25.6227 14.0566 26.4435 14.425 27.0377 15.0203C27.632 15.6157 27.9994 16.4383 27.9994 17.3467C27.9994 19.1633 26.5293 20.6363 24.7158 20.6363Z" fill="#5C5E70"/>
        <path d="M28.0001 17.3461C28.0001 17.1283 27.9785 16.9155 27.9381 16.7096C27.6401 18.2133 26.3005 19.3421 24.7171 19.365C24.7008 19.3655 24.6845 19.3658 24.6682 19.3656H24.6377C24.6133 19.7693 24.6321 20.1963 24.7165 20.6356C26.5299 20.6356 28.0001 19.1625 28.0001 17.3461ZM23.1418 19.7081H22.5888C22.4772 19.7081 22.3701 19.6637 22.2912 19.5846C22.2123 19.5055 22.168 19.3983 22.168 19.2865C22.168 19.1746 22.2123 19.0674 22.2912 18.9883C22.3701 18.9093 22.4772 18.8648 22.5888 18.8648H23.1418C23.2535 18.8648 23.3605 18.9093 23.4394 18.9883C23.5183 19.0674 23.5627 19.1746 23.5627 19.2865C23.5627 19.3983 23.5183 19.5055 23.4394 19.5846C23.3605 19.6637 23.2535 19.7081 23.1418 19.7081ZM23.1418 17.9654H22.5888C22.4772 17.9654 22.3701 17.921 22.2912 17.8419C22.2123 17.7628 22.168 17.6556 22.168 17.5437C22.168 17.4319 22.2123 17.3247 22.2912 17.2456C22.3701 17.1665 22.4772 17.1221 22.5888 17.1221H23.1418C23.2535 17.1221 23.3605 17.1665 23.4394 17.2456C23.5183 17.3247 23.5627 17.4319 23.5627 17.5437C23.5627 17.6556 23.5183 17.7628 23.4394 17.8419C23.3605 17.921 23.2535 17.9654 23.1418 17.9654Z" fill="#3B3D4C"/>
        <path d="M11.0996 13.7162C13.3741 13.7162 15.6741 14.2224 17.1943 14.6434C18.2397 14.9333 18.9631 15.887 18.9631 16.9739C18.9631 18.0608 18.2397 19.0148 17.1943 19.3044C15.6743 19.7256 13.374 20.2318 11.0996 20.2318C11.0996 20.2316 12.311 17.4013 11.0996 13.7162Z" fill="#FFDC8D"/>
        <path d="M18.9631 16.9741C18.9634 17.5031 18.7905 18.0176 18.4709 18.4386C18.1514 18.8593 17.7031 19.1634 17.1945 19.3044C15.6744 19.7254 13.3739 20.232 11.0996 20.232C11.0996 20.232 11.3555 19.6344 11.5143 18.6304C13.6505 18.6021 15.7671 18.3626 17.1945 18.1608C17.7168 18.0872 18.1591 17.9292 18.4709 17.7201C18.7824 17.5109 18.9631 17.2511 18.9631 16.9741Z" fill="#E8C57E"/>
        <path d="M15.5402 24.9219C15.4717 24.922 15.4043 24.9054 15.3437 24.8734C15.2831 24.8414 15.2313 24.7951 15.1926 24.7385C14.1572 23.2222 13.8258 21.2126 14.2345 18.9266C14.5383 17.2265 15.136 15.9797 15.1612 15.9275C15.2627 15.718 15.5143 15.6304 15.7235 15.7321C15.9326 15.8337 16.0199 16.0859 15.9185 16.2955C15.907 16.3194 15.3387 17.5142 15.0593 19.0962C14.6907 21.1801 14.9694 22.9183 15.8871 24.2622C16.0184 24.4542 15.9693 24.7167 15.7775 24.8483C15.7077 24.8964 15.6249 24.922 15.5402 24.9219Z" fill="#E8C57E"/>
        <path d="M10.9024 12.0305C9.31905 11.4575 7.78851 11.1236 7.77199 11.1198C7.54537 11.0707 7.40072 10.846 7.4501 10.6187C7.49877 10.3912 7.72266 10.2466 7.94994 10.2955C8.02066 10.3107 9.67643 10.6722 11.3773 11.3069C11.394 11.313 10.9789 12.0585 10.9024 12.0305Z" fill="#BDD9E5"/>
        <path d="M15.1197 14.3698C15.1197 14.4816 15.0754 14.5889 14.9965 14.668C14.9175 14.747 14.8105 14.7915 14.6989 14.7915C14.5873 14.7915 14.4802 14.747 14.4013 14.668C14.3224 14.5889 14.278 14.4816 14.278 14.3698C14.278 13.6889 13.1318 12.867 11.132 12.1153C11.0555 12.0866 10.9789 12.0586 10.9023 12.0306L11.3773 11.3069C11.3939 11.3131 11.4108 11.3199 11.4277 11.3261C13.9123 12.2598 15.1197 13.2561 15.1197 14.3698Z" fill="#E8C57E"/>
        <path d="M16.5231 14.7258C16.4949 14.8093 16.4413 14.8818 16.3698 14.9332C16.2984 14.9846 16.2127 15.0123 16.1247 15.0124C16.0799 15.0124 16.0344 15.0051 15.9895 14.9899C15.9371 14.9722 15.8888 14.9443 15.8472 14.9078C15.8056 14.8713 15.7716 14.827 15.7471 14.7773C15.7226 14.7277 15.7081 14.6737 15.7044 14.6184C15.7007 14.5632 15.7079 14.5077 15.7257 14.4553C16.0905 13.3771 14.3297 12.193 13.2472 11.5831C12.8567 11.3632 12.4579 11.1614 12.0791 10.982L12.5379 10.2662C12.8994 10.4394 13.2775 10.6323 13.6514 10.8431C15.984 12.156 16.9501 13.4619 16.5231 14.7259V14.7258Z" fill="#E8C57E"/>
    </g>
    <defs>
        <clipPath id="clip0_580_5138">
            <rect width="28" height="28" fill="white"/>
        </clipPath>
    </defs>
</svg>