<svg xmlns="http://www.w3.org/2000/svg" width="32" height="32" viewBox="0 0 32 32" fill="none">
    <g clip-path="url(#clip0_588_2508)">
        <path d="M30.5444 25.7661H1.45358C0.653585 25.7661 -0.000976562 25.1116 -0.000976562 24.3116V8.31162C-0.000976562 7.51162 0.653585 6.85706 1.45358 6.85706H30.5445C31.3445 6.85706 31.999 7.51162 31.999 8.31162V24.3116C31.999 25.1116 31.3444 25.7661 30.5444 25.7661Z" fill="#0E9347"/>
        <path d="M27.6359 24.3116H4.36316C4.36316 22.7116 3.0541 21.4025 1.4541 21.4025V11.2207C3.0541 11.2207 4.36316 9.91164 4.36316 8.31165H27.6359C27.6359 9.91164 28.9449 11.2207 30.5449 11.2207V21.4025C28.9449 21.4025 27.6359 22.7116 27.6359 24.3116Z" fill="#3BB54A"/>
        <path d="M15.9988 22.857C19.2121 22.857 21.817 19.9265 21.817 16.3115C21.817 12.6966 19.2121 9.76611 15.9988 9.76611C12.7856 9.76611 10.1807 12.6966 10.1807 16.3115C10.1807 19.9265 12.7856 22.857 15.9988 22.857Z" fill="#0E9347"/>
        <path d="M7.27194 17.7662C8.07527 17.7662 8.7265 17.1149 8.7265 16.3116C8.7265 15.5083 8.07527 14.8571 7.27194 14.8571C6.46861 14.8571 5.81738 15.5083 5.81738 16.3116C5.81738 17.1149 6.46861 17.7662 7.27194 17.7662Z" fill="#0E9347"/>
        <path d="M24.726 17.7662C25.5294 17.7662 26.1806 17.1149 26.1806 16.3116C26.1806 15.5083 25.5294 14.8571 24.726 14.8571C23.9227 14.8571 23.2715 15.5083 23.2715 16.3116C23.2715 17.1149 23.9227 17.7662 24.726 17.7662Z" fill="#0E9347"/>
        <path d="M16.7261 15.5844H15.2716C14.8352 15.5844 14.5443 15.2934 14.5443 14.8571C14.5443 14.4207 14.8353 14.1299 15.2716 14.1299H17.4534C17.8898 14.1299 18.1806 13.8389 18.1806 13.4026C18.1806 12.9662 17.8897 12.6754 17.4534 12.6754H16.7261C16.7261 12.239 16.4352 11.9481 15.9989 11.9481C15.5625 11.9481 15.2717 12.2391 15.2717 12.6754C14.0353 12.6754 13.0898 13.6208 13.0898 14.8572C13.0898 16.0936 14.0353 17.039 15.2717 17.039H16.7262C17.1626 17.039 17.4535 17.3299 17.4535 17.7662C17.4535 18.2026 17.1625 18.4935 16.7262 18.4935H14.5444C14.108 18.4935 13.8172 18.7844 13.8172 19.2207C13.8172 19.6571 14.1081 19.948 14.5444 19.948H15.2717C15.2717 20.3844 15.5626 20.6752 15.9989 20.6752C16.4353 20.6752 16.7261 20.3843 16.7261 19.948C17.9625 19.948 18.908 19.0025 18.908 17.7662C18.908 16.5298 17.9625 15.5844 16.7261 15.5844Z" fill="#89C763"/>
    </g>
    <defs>
        <clipPath id="clip0_588_2508">
            <rect width="32" height="32" fill="white"/>
        </clipPath>
    </defs>
</svg>