<svg width="36" height="36" viewBox="0 0 36 36" fill="none" xmlns="http://www.w3.org/2000/svg">
<g id="user-headset 1">
<path id="Vector" d="M14.5299 15.6874C14.5299 16.3073 14.6724 16.8946 14.9261 17.4166C14.3807 18.1231 14.0412 18.9995 13.9956 19.9546C12.9482 18.8431 12.3037 17.3401 12.3037 15.6886C12.3037 11.8512 15.7788 8.81816 19.7157 9.63492C22.0332 10.1164 23.9109 12.003 24.4052 14.3419C24.5543 15.0484 24.5821 15.7403 24.5064 16.4018C24.4419 16.9621 23.9555 17.3761 23.3967 17.3761H23.3466C22.6877 17.3761 22.2246 16.7832 22.297 16.1217C22.346 15.6773 22.3204 15.2104 22.2079 14.7346C21.8762 13.3249 20.7387 12.1831 19.3417 11.8579C16.7972 11.2673 14.5288 13.2158 14.5288 15.6886L14.5299 15.6874ZM10.2 14.2306C10.505 12.4384 11.3721 10.8049 12.7167 9.53029C14.4186 7.91816 16.647 7.12166 18.9833 7.26791C23.3833 7.55591 26.8239 11.4518 26.7727 16.1161C26.7515 18.0691 25.1331 19.6238 23.2019 19.6238H20.5238C20.2522 18.6912 19.4085 18.0049 18.3978 18.0049C17.1679 18.0049 16.1717 19.0118 16.1717 20.255C16.1717 21.4981 17.1679 22.505 18.3978 22.505C18.9967 22.505 19.5388 22.2631 19.9384 21.8738H23.2019C26.3397 21.8738 28.9543 19.3482 28.9989 16.1779C29.0812 10.3043 24.7157 5.38802 19.1269 5.02352C16.1617 4.8289 13.3489 5.84703 11.1951 7.89003C9.52657 9.47066 8.41683 11.5632 8.01723 13.8143C7.89591 14.4983 8.4313 15.1261 9.11807 15.1261C9.64345 15.1261 10.1121 14.7559 10.2 14.2317V14.2306ZM18.4257 24.125C14.3128 24.125 10.7543 26.7035 9.5711 30.5397C9.38744 31.1326 9.7158 31.7637 10.3024 31.9494C10.8879 32.1282 11.5123 31.802 11.696 31.2102C12.5742 28.364 15.3402 26.375 18.4246 26.375C21.5089 26.375 24.276 28.364 25.1532 31.2102C25.3023 31.6917 25.7409 32 26.2161 32C26.3263 32 26.4365 31.9831 26.5478 31.9494C27.1344 31.7637 27.4617 31.1326 27.2791 30.5397C26.0959 26.7035 22.5374 24.125 18.4246 24.125H18.4257Z" fill="black"/>
</g>
</svg>
