<svg width="28" height="28" viewBox="0 0 28 28" fill="none" xmlns="http://www.w3.org/2000/svg">
<path d="M6.56152 10.9374C8.97777 10.9374 10.9365 8.97862 10.9365 6.56238C10.9365 4.14613 8.97777 2.18738 6.56152 2.18738C4.14528 2.18738 2.18652 4.14613 2.18652 6.56238C2.18652 8.97862 4.14528 10.9374 6.56152 10.9374Z" fill="#7ED63E"/>
<path d="M20.7628 11.5673L18.6978 13.6323L11.4834 20.8467C11.4021 20.9281 11.3056 20.9926 11.1994 21.0366C11.0932 21.0807 10.9793 21.1033 10.8643 21.1033C10.7493 21.1033 10.6355 21.0807 10.5292 21.0366C10.423 20.9926 10.3265 20.9281 10.2453 20.8467L9.62838 20.2298V20.2255L7.77338 18.3705H7.76901L7.15213 17.7536C7.07078 17.6723 7.00624 17.5758 6.96221 17.4696C6.91817 17.3634 6.89551 17.2495 6.89551 17.1345C6.89551 17.0195 6.91817 16.9057 6.96221 16.7994C7.00624 16.6932 7.07078 16.5967 7.15213 16.5155L16.4315 7.23608L20.7628 11.5673Z" fill="#D1E7F8"/>
<path d="M6.53125 19.6069L7.76763 18.3705L9.62394 20.2264L8.38756 21.4627L6.53125 19.6069Z" fill="#57A4FF"/>
<path d="M7.76758 18.3706L7.76845 18.3702L9.62433 20.2261L9.62345 20.2269L7.76758 18.3706ZM18.9063 7.23625L22.5118 3.63037L24.3676 5.48625L20.7626 9.09125L18.9063 7.23625Z" fill="#9BC9FF"/>
<path d="M21.2773 2.39045L22.5146 3.62814L24.3709 5.48445L25.6086 6.7217L26.8458 5.48445L22.5146 1.1532L21.2773 2.39045Z" fill="#2488FF"/>
<path d="M15.8154 6.6153L21.3839 12.1838L22.6212 10.9466L18.909 7.23436L17.0527 5.37805L15.8154 6.6153Z" fill="#57A4FF"/>
<path d="M23.624 17.9374V16.6249H21.4365V17.9374C20.474 17.9374 19.249 18.7249 19.249 19.6874V25.8124C19.249 26.2936 20.0803 26.6874 20.5615 26.6874H24.499C24.7309 26.6867 24.953 26.5943 25.117 26.4303C25.2809 26.2664 25.3733 26.0442 25.374 25.8124V19.6874C25.3726 19.2237 25.1878 18.7794 24.8599 18.4515C24.532 18.1236 24.0877 17.9388 23.624 17.9374Z" fill="#D1E7F8"/>
<path d="M23.624 17.9374V16.6249H23.1865V17.6933C23.1867 17.7776 23.2114 17.8601 23.2576 17.9306C23.3038 18.0011 23.3696 18.0567 23.4468 18.0905C23.7584 18.2256 24.0239 18.4486 24.2108 18.7322C24.3976 19.0158 24.4978 19.3477 24.499 19.6874V25.8124C24.4983 26.0442 24.4059 26.2664 24.242 26.4303C24.078 26.5943 23.8559 26.6867 23.624 26.6874H24.499C24.7309 26.6867 24.953 26.5943 25.117 26.4303C25.2809 26.2664 25.3733 26.0442 25.374 25.8124V19.6874C25.3726 19.2237 25.1878 18.7794 24.8599 18.4515C24.532 18.1236 24.0877 17.9388 23.624 17.9374Z" fill="#BDDBFF"/>
<path d="M20.5615 14.8749H24.499V16.6249H20.5615V14.8749Z" fill="#007BFF"/>
<path d="M19.249 20.1249H25.374V24.4999H19.249V20.1249Z" fill="#BDDBFF"/>
<path d="M24.499 20.1249H25.374V24.4999H24.499V20.1249Z" fill="#9AC8FF"/>
<path d="M23.1865 21.8749H22.749V21.4374C22.749 21.3213 22.7029 21.2101 22.6209 21.128C22.5388 21.046 22.4276 20.9999 22.3115 20.9999C22.1955 20.9999 22.0842 21.046 22.0022 21.128C21.9201 21.2101 21.874 21.3213 21.874 21.4374V21.8749H21.4365C21.3205 21.8749 21.2092 21.921 21.1272 22.003C21.0451 22.0851 20.999 22.1963 20.999 22.3124C20.999 22.4284 21.0451 22.5397 21.1272 22.6217C21.2092 22.7038 21.3205 22.7499 21.4365 22.7499H21.874V23.1874C21.874 23.3034 21.9201 23.4147 22.0022 23.4967C22.0842 23.5788 22.1955 23.6249 22.3115 23.6249C22.4276 23.6249 22.5388 23.5788 22.6209 23.4967C22.7029 23.4147 22.749 23.3034 22.749 23.1874V22.7499H23.1865C23.3026 22.7499 23.4138 22.7038 23.4959 22.6217C23.5779 22.5397 23.624 22.4284 23.624 22.3124C23.624 22.1963 23.5779 22.0851 23.4959 22.003C23.4138 21.921 23.3026 21.8749 23.1865 21.8749Z" fill="#007BFF"/>
<path d="M1.74893 26.6874C1.66241 26.6873 1.57785 26.6617 1.50592 26.6136C1.43399 26.5655 1.37793 26.4972 1.34482 26.4173C1.31172 26.3373 1.30305 26.2494 1.31992 26.1645C1.3368 26.0797 1.37845 26.0017 1.43962 25.9405L6.35274 21.027C6.39339 20.9864 6.44164 20.9541 6.49474 20.9322C6.54784 20.9102 6.60474 20.8989 6.66221 20.8989C6.71967 20.8989 6.77657 20.9103 6.82966 20.9323C6.88274 20.9543 6.93097 20.9866 6.97159 21.0272C7.01221 21.0678 7.04442 21.1161 7.06639 21.1692C7.08837 21.2223 7.09966 21.2792 7.09964 21.3367C7.09962 21.3941 7.08828 21.451 7.06627 21.5041C7.04426 21.5572 7.01202 21.6054 6.97137 21.646L2.05824 26.5592C1.97621 26.6412 1.86495 26.6873 1.74893 26.6874Z" fill="#D1D3D4"/>
<path d="M9.31823 18.0616C9.40074 18.1413 9.51125 18.1854 9.62596 18.1844C9.74068 18.1834 9.85041 18.1374 9.93152 18.0563C10.0126 17.9752 10.0587 17.8654 10.0596 17.7507C10.0606 17.636 10.0165 17.5255 9.93685 17.443L8.08054 15.5867L7.46191 16.2053L9.31823 18.0616ZM10.5564 16.8243C10.6389 16.904 10.7494 16.9481 10.8641 16.9471C10.9788 16.9461 11.0885 16.9001 11.1696 16.819C11.2508 16.7379 11.2968 16.6282 11.2978 16.5135C11.2988 16.3987 11.2547 16.2882 11.175 16.2057L9.31823 14.3498L8.6996 14.9685L10.5564 16.8243ZM11.7936 15.5867C11.8342 15.6273 11.8824 15.6596 11.9355 15.6816C11.9886 15.7036 12.0455 15.7149 12.103 15.7149C12.1604 15.715 12.2173 15.7037 12.2704 15.6817C12.3235 15.6597 12.3718 15.6275 12.4124 15.5869C12.4531 15.5463 12.4853 15.498 12.5074 15.445C12.5294 15.3919 12.5407 15.335 12.5407 15.2775C12.5407 15.22 12.5294 15.1631 12.5075 15.11C12.4855 15.0569 12.4533 15.0087 12.4127 14.968L10.5564 13.1122L9.93773 13.7308L11.7936 15.5867ZM13.0313 14.3498C13.1139 14.4295 13.2244 14.4735 13.3391 14.4724C13.4538 14.4714 13.5635 14.4253 13.6446 14.3441C13.7256 14.2629 13.7716 14.1532 13.7725 14.0384C13.7734 13.9237 13.7292 13.8132 13.6495 13.7308L11.7932 11.8745L11.1745 12.4931L13.0313 14.3498ZM14.2685 13.1122C14.3511 13.1919 14.4616 13.236 14.5763 13.235C14.691 13.234 14.8007 13.1879 14.8818 13.1068C14.963 13.0257 15.009 12.916 15.01 12.8013C15.011 12.6866 14.9669 12.576 14.8872 12.4935L13.0313 10.6372L12.4127 11.2558L14.2685 13.1122ZM15.5058 11.8745C15.5461 11.9163 15.5944 11.9496 15.6478 11.9725C15.7012 11.9954 15.7586 12.0075 15.8167 12.008C15.8748 12.0085 15.9324 11.9975 15.9861 11.9755C16.0399 11.9535 16.0888 11.921 16.1298 11.8799C16.1709 11.8388 16.2034 11.79 16.2254 11.7362C16.2474 11.6824 16.2585 11.6248 16.258 11.5667C16.2575 11.5086 16.2454 11.4512 16.2225 11.3979C16.1995 11.3445 16.1662 11.2962 16.1244 11.2558L14.2685 9.39954L13.6495 10.0186L15.5058 11.8745Z" fill="#9BC9FF"/>
<path d="M5.37769 8.62181C5.45974 8.70383 5.571 8.7499 5.68701 8.7499C5.80302 8.7499 5.91428 8.70383 5.99632 8.62181L9.05882 5.55931C9.13851 5.47679 9.18261 5.36628 9.18161 5.25157C9.18062 5.13686 9.13461 5.02713 9.05349 4.94601C8.97237 4.8649 8.86264 4.81888 8.74793 4.81789C8.63322 4.81689 8.52271 4.86099 8.44019 4.94068L5.68701 7.69387L4.68382 6.69068C4.60131 6.61099 4.49079 6.56689 4.37608 6.56789C4.26137 6.56888 4.15164 6.6149 4.07052 6.69601C3.98941 6.77713 3.9434 6.88686 3.9424 7.00157C3.9414 7.11628 3.9855 7.22679 4.06519 7.30931L5.37769 8.62181Z" fill="#F1F2F2"/>
<path d="M10.6196 2.222C11.7187 1.90795 12.8562 1.74906 13.9993 1.74994C15.9062 1.74415 17.7875 2.18844 19.4903 3.04669C19.594 3.0989 19.7142 3.10779 19.8244 3.0714C19.9346 3.03502 20.0259 2.95633 20.0781 2.85265C20.1303 2.74898 20.1392 2.62881 20.1028 2.51858C20.0665 2.40835 19.9878 2.31709 19.8841 2.26487C18.0592 1.34503 16.0429 0.868814 13.9993 0.874936C12.7748 0.874079 11.5563 1.04431 10.379 1.38069C10.2674 1.4126 10.1731 1.48752 10.1168 1.58897C10.0604 1.69042 10.0467 1.81009 10.0786 1.92165C10.1105 2.03322 10.1855 2.12754 10.2869 2.18387C10.3884 2.24019 10.508 2.25391 10.6196 2.222ZM3.76178 21.9318C3.84237 21.9313 3.92124 21.9085 3.98969 21.866C4.05815 21.8235 4.11354 21.7629 4.14974 21.6909C4.18594 21.6189 4.20155 21.5383 4.19485 21.458C4.18816 21.3777 4.15941 21.3008 4.11178 21.2358C3.00483 19.7201 2.26006 17.9708 1.9347 16.1224C1.60933 14.274 1.71203 12.3755 2.23491 10.573C2.26734 10.4615 2.25417 10.3418 2.19829 10.24C2.14242 10.1383 2.04842 10.0629 1.93697 10.0305C1.82552 9.99807 1.70575 10.0112 1.60401 10.0671C1.50227 10.123 1.4269 10.217 1.39447 10.3284C0.834433 12.2599 0.724635 14.294 1.07351 16.2745C1.42239 18.2549 2.22065 20.1291 3.40697 21.7529C3.44779 21.8086 3.50122 21.8538 3.56289 21.885C3.62456 21.916 3.69271 21.9321 3.76178 21.9318ZM17.3707 25.7805C15.5795 26.2905 13.6957 26.3864 11.862 26.061C10.0283 25.7357 8.29257 24.9975 6.78622 23.9023C6.73992 23.867 6.68704 23.8413 6.63068 23.8267C6.57432 23.8121 6.51562 23.8089 6.458 23.8173C6.40039 23.8257 6.34503 23.8454 6.29516 23.8755C6.24529 23.9055 6.20192 23.9452 6.1676 23.9923C6.13327 24.0393 6.10867 24.0927 6.09525 24.1493C6.08182 24.206 6.07984 24.2647 6.08941 24.3222C6.09899 24.3796 6.11993 24.4345 6.15101 24.4838C6.18209 24.533 6.22268 24.5755 6.27041 24.6089C7.88423 25.7825 9.74391 26.5736 11.7087 26.9223C13.6734 27.2709 15.6917 27.168 17.6108 26.6214C17.7211 26.5884 17.8138 26.5133 17.8691 26.4123C17.9243 26.3114 17.9376 26.1928 17.906 26.0822C17.8744 25.9715 17.8005 25.8778 17.7003 25.8213C17.6001 25.7647 17.4817 25.7503 17.3707 25.7805ZM27.1243 13.9999C27.1241 15.0703 26.9948 16.1368 26.7393 17.1762C26.7152 17.2707 26.6605 17.3546 26.5837 17.4147C26.507 17.4749 26.4124 17.5079 26.3149 17.5087C26.2781 17.5086 26.2413 17.5042 26.2055 17.4956C26.0935 17.4669 25.9971 17.3953 25.9374 17.2963C25.8776 17.1973 25.8592 17.0787 25.8862 16.9662C26.1274 15.9959 26.2493 14.9998 26.2493 13.9999C26.2554 12.108 25.8179 10.2409 24.9718 8.54869C24.9243 8.44537 24.919 8.32763 24.9568 8.22042C24.9947 8.11321 25.0728 8.02494 25.1746 7.97432C25.2764 7.92371 25.3939 7.91471 25.5022 7.94924C25.6105 7.98377 25.7012 8.05911 25.7549 8.15931C26.6617 9.97237 27.1307 11.9728 27.1243 13.9999Z" fill="#007BFF"/>
<path d="M7.46179 21.7743L8.08042 21.1552L6.84317 19.918L6.22411 20.5366C6.14284 20.6179 6.07837 20.7143 6.03439 20.8205C5.99041 20.9267 5.96777 21.0405 5.96777 21.1554C5.96777 21.2704 5.99041 21.3842 6.03439 21.4904C6.07837 21.5965 6.14284 21.693 6.22411 21.7743C6.38823 21.9384 6.61084 22.0306 6.84295 22.0306C6.95788 22.0306 7.07169 22.008 7.17787 21.964C7.28405 21.92 7.38053 21.8555 7.46179 21.7743Z" fill="#2488FF"/>
</svg>
